# xmcd
#
# Track frame offsets:
#	150
#	20047
#	37140
#	51005
#	65520
#	77425
#	90790
#	104307
#	123680
#	137475
#	153207
#	169165
#
# Disc length: 2342 seconds
#
# Revision: 0
# Processed by: cddbd v1.5.1PL0 Copyright (c) Steve Scherf et al.
# Submitted via: dBpowerAMP V4.0
#
DISCID=9309240c
DTITLE=Old Joe Clarks - Town of Ten
DYEAR=1996
DGENRE=Alt. Country
TTITLE0=Breaking Ground
TTITLE1=Welfare Hotel
TTITLE2=New John Henry
TTITLE3=All My Life
TTITLE4=Weekender
TTITLE5=You Hold The Gold
TTITLE6=Old Joe's Stomp
TTITLE7=Town Of Ten
TTITLE8=Too Late
TTITLE9=Bullets
TTITLE10=Storms Are On The Ocean
TTITLE11=First Cousins
EXTD=
EXTT0=
EXTT1=
EXTT2=
EXTT3=
EXTT4=
EXTT5=
EXTT6=
EXTT7=
EXTT8=
EXTT9=
EXTT10=
EXTT11=
PLAYORDER=
